<svg xmlns="http://www.w3.org/2000/svg" viewBox="0 0 246.25 77.81"><defs><style>.cls-1{fill:#034ea2}.cls-2{fill:#fff200}</style></defs><g id="Warstwa_2" data-name="Warstwa 2"><polygon points="101.15 49.64 84.8 49.64 84.8 24.82 101.15 24.82 101.15 27.75 88.1 27.75 88.1 34.55 101.15 34.55 101.15 37.49 88.1 37.49 88.1 46.7 101.15 46.7 101.15 49.64" class="cls-1"/><path d="M118.34,44.72h-.17a11.44,11.44,0,0,0-1.36-.24,13.6,13.6,0,0,0-1.55-.08,6.55,6.55,0,0,0-2.8.64,13.16,13.16,0,0,0-2.61,1.66V59.92h-3.13V41.3h3.13v2.75a15.22,15.22,0,0,1,3.3-2.12,7.13,7.13,0,0,1,2.91-.63c.54,0,.94,0,1.18,0l1.1.16Z" class="cls-1" transform="translate(-1.88 -10.28)"/><path d="M135.19,59.92h-3.11v-2c-.28.19-.66.45-1.13.79a8,8,0,0,1-1.37.81,9.27,9.27,0,0,1-4.19.9,6,6,0,0,1-4.26-1.67,5.6,5.6,0,0,1-1.75-4.25,5.91,5.91,0,0,1,.9-3.42,6,6,0,0,1,2.6-2.06A14,14,0,0,1,127,48c1.59-.18,3.29-.31,5.12-.4v-.48a3.74,3.74,0,0,0-.38-1.77,2.76,2.76,0,0,0-1.07-1.1,4.64,4.64,0,0,0-1.6-.52,13.78,13.78,0,0,0-2-.13,13.05,13.05,0,0,0-2.75.33,22,22,0,0,0-3.14.93H121V41.7c.61-.16,1.49-.35,2.65-.55a19.9,19.9,0,0,1,3.41-.3,15.71,15.71,0,0,1,3.43.33A6.73,6.73,0,0,1,133,42.29a4.77,4.77,0,0,1,1.6,2,7.28,7.28,0,0,1,.55,3Zm-3.11-4.58V50.15c-1,.06-2.08.14-3.38.25a18.26,18.26,0,0,0-3.07.49,5,5,0,0,0-2.19,1.19,3.43,3.43,0,0,0,.14,4.63,4.52,4.52,0,0,0,3,.81,6.94,6.94,0,0,0,3-.64,13.53,13.53,0,0,0,2.54-1.54" class="cls-1" transform="translate(-1.88 -10.28)"/><path d="M153.34,54.55a5.07,5.07,0,0,1-2.11,4.19,9.14,9.14,0,0,1-5.75,1.63,13.77,13.77,0,0,1-3.8-.49,18,18,0,0,1-2.89-1.07V55.29H139a12.76,12.76,0,0,0,3.3,1.77,10.17,10.17,0,0,0,3.48.66,6.52,6.52,0,0,0,3.24-.67,2.25,2.25,0,0,0,1.16-2.1,2.12,2.12,0,0,0-.63-1.66,5.75,5.75,0,0,0-2.43-1c-.45-.1-1-.22-1.75-.35s-1.37-.28-2-.43a6.52,6.52,0,0,1-3.48-1.91,4.71,4.71,0,0,1-1-3.09,5,5,0,0,1,.48-2.17,5.37,5.37,0,0,1,1.44-1.82,7,7,0,0,1,2.38-1.24,10.75,10.75,0,0,1,3.22-.46,14.66,14.66,0,0,1,3.38.41,12.61,12.61,0,0,1,2.84,1V45.6h-.17a11.33,11.33,0,0,0-2.91-1.49,10.23,10.23,0,0,0-3.37-.61,5.89,5.89,0,0,0-2.9.66,2.11,2.11,0,0,0-1.18,2,2.07,2.07,0,0,0,.71,1.73,5.52,5.52,0,0,0,2.27.95c.58.14,1.22.27,1.94.4s1.31.26,1.79.37a6.62,6.62,0,0,1,3.37,1.72,4.5,4.5,0,0,1,1.18,3.26" class="cls-1" transform="translate(-1.88 -10.28)"/><path d="M183.84,59.92h-3.13V49.32c0-.8,0-1.57-.11-2.32a4.89,4.89,0,0,0-.46-1.78,2.5,2.5,0,0,0-1.1-1.08,4.59,4.59,0,0,0-2.07-.37,5.82,5.82,0,0,0-2.63.66,16.76,16.76,0,0,0-2.64,1.67c0,.26.06.56.09.89s0,.68,0,1V59.92h-3.13V49.32c0-.82,0-1.6-.11-2.34a5,5,0,0,0-.46-1.78,2.47,2.47,0,0,0-1.1-1.07,4.75,4.75,0,0,0-2.07-.36,5.83,5.83,0,0,0-2.57.63A16.63,16.63,0,0,0,159.8,46v13.9h-3.13V41.3h3.13v2.07a13.73,13.73,0,0,1,2.93-1.9,7.17,7.17,0,0,1,3.11-.68,6.06,6.06,0,0,1,3.22.8,4.88,4.88,0,0,1,2,2.21,15.74,15.74,0,0,1,3.46-2.3,8,8,0,0,1,3.35-.71,5.42,5.42,0,0,1,4.53,1.85,8.25,8.25,0,0,1,1.46,5.2Z" class="cls-1" transform="translate(-1.88 -10.28)"/><path d="M203.58,59.92h-3.14V57.85a14.54,14.54,0,0,1-3,1.92,7.52,7.52,0,0,1-3.2.67,5.88,5.88,0,0,1-4.57-1.79A7.57,7.57,0,0,1,188,53.39V41.3h3.13V51.9a18.53,18.53,0,0,0,.14,2.43,4.21,4.21,0,0,0,.56,1.72A2.67,2.67,0,0,0,193,57.12a5.15,5.15,0,0,0,2.08.33,6.7,6.7,0,0,0,2.66-.63,12.11,12.11,0,0,0,2.69-1.62V41.3h3.14Z" class="cls-1" transform="translate(-1.88 -10.28)"/><path d="M221.87,54.55a5.09,5.09,0,0,1-2.1,4.19A9.19,9.19,0,0,1,214,60.37a13.64,13.64,0,0,1-3.79-.49,17.76,17.76,0,0,1-2.9-1.07V55.29h.17a12.76,12.76,0,0,0,3.3,1.77,10.17,10.17,0,0,0,3.48.66,6.52,6.52,0,0,0,3.24-.67,2.23,2.23,0,0,0,1.16-2.1,2.12,2.12,0,0,0-.63-1.66,5.69,5.69,0,0,0-2.43-1c-.45-.1-1-.22-1.74-.35s-1.37-.28-2-.43a6.56,6.56,0,0,1-3.48-1.91,4.75,4.75,0,0,1-1-3.09,5.16,5.16,0,0,1,.47-2.17,5.37,5.37,0,0,1,1.44-1.82,7,7,0,0,1,2.38-1.24,10.75,10.75,0,0,1,3.22-.46,14.6,14.6,0,0,1,3.38.41,12.44,12.44,0,0,1,2.84,1V45.6H221a11.57,11.57,0,0,0-2.92-1.49,10.23,10.23,0,0,0-3.37-.61,5.89,5.89,0,0,0-2.9.66,2.32,2.32,0,0,0-.47,3.69,5.59,5.59,0,0,0,2.27.95c.58.14,1.23.27,1.94.4s1.32.26,1.79.37a6.62,6.62,0,0,1,3.37,1.72,4.5,4.5,0,0,1,1.18,3.26" class="cls-1" transform="translate(-1.88 -10.28)"/><polygon points="246.25 40.1 237.16 40.1 237.16 49.19 234.4 49.19 234.4 40.1 225.31 40.1 225.31 37.44 234.4 37.44 234.4 28.35 237.16 28.35 237.16 37.44 246.25 37.44 246.25 40.1" class="cls-1"/><rect width="74.46" height="49.64" class="cls-1"/><polygon points="37.23 5.51 37.84 7.43 39.85 7.42 38.22 8.6 38.85 10.5 37.23 9.31 35.61 10.51 36.24 8.6 34.61 7.42 36.62 7.43 37.23 5.51" class="cls-2"/><polygon points="28.96 7.73 29.57 9.65 31.58 9.64 29.95 10.81 30.58 12.72 28.96 11.53 27.34 12.72 27.97 10.81 26.33 9.64 28.34 9.65 28.96 7.73" class="cls-2"/><polygon points="22.9 13.79 23.52 15.71 25.52 15.7 23.89 16.87 24.52 18.78 22.9 17.59 21.28 18.78 21.91 16.87 20.28 15.7 22.29 15.71 22.9 13.79" class="cls-2"/><polygon points="20.69 22.06 21.3 23.98 23.3 23.97 21.68 25.14 22.3 27.05 20.69 25.86 19.06 27.05 19.69 25.14 18.06 23.97 20.07 23.98 20.69 22.06" class="cls-2"/><polygon points="22.9 30.34 23.52 32.25 25.52 32.24 23.89 33.42 24.52 35.32 22.9 34.14 21.28 35.33 21.91 33.42 20.28 32.24 22.29 32.25 22.9 30.34" class="cls-2"/><polygon points="28.96 36.39 29.57 38.31 31.58 38.3 29.95 39.47 30.58 41.38 28.96 40.19 27.34 41.38 27.97 39.47 26.33 38.3 28.34 38.31 28.96 36.39" class="cls-2"/><polygon points="37.23 38.61 37.85 40.52 39.85 40.51 38.22 41.69 38.85 43.6 37.23 42.41 35.61 43.6 36.24 41.69 34.61 40.51 36.62 40.52 37.23 38.61" class="cls-2"/><polygon points="45.51 36.39 46.12 38.31 48.12 38.3 46.49 39.47 47.12 41.38 45.51 40.19 43.88 41.38 44.51 39.47 42.88 38.3 44.89 38.31 45.51 36.39" class="cls-2"/><polygon points="51.56 30.34 52.17 32.25 54.18 32.24 52.55 33.42 53.18 35.32 51.56 34.13 49.94 35.33 50.57 33.42 48.94 32.24 50.95 32.25 51.56 30.34" class="cls-2"/><polygon points="53.78 22.06 54.39 23.98 56.4 23.97 54.77 25.14 55.4 27.05 53.78 25.86 52.16 27.05 52.79 25.14 51.15 23.97 53.16 23.98 53.78 22.06" class="cls-2"/><polygon points="51.56 13.79 52.17 15.71 54.18 15.7 52.55 16.87 53.18 18.78 51.56 17.59 49.94 18.78 50.57 16.87 48.94 15.7 50.95 15.71 51.56 13.79" class="cls-2"/><polygon points="45.5 7.73 46.12 9.65 48.12 9.64 46.49 10.81 47.12 12.72 45.5 11.53 43.88 12.72 44.51 10.81 42.88 9.64 44.89 9.65 45.5 7.73" class="cls-2"/><path d="M2.06,71.78h8.81v1.87L4.29,82.4h6.77v1.9H1.88V82.4l6.48-8.73H2.06Z" class="cls-1" transform="translate(-1.88 -10.28)"/><path d="M24.33,78.31a1.54,1.54,0,0,0-1.7-1.73,5.52,5.52,0,0,0-2.1.42,3.12,3.12,0,0,1,.21,1.18V84.3H18.68v-6A1.53,1.53,0,0,0,17,76.58a5.75,5.75,0,0,0-1.86.32v7.4H13V75.57a11.64,11.64,0,0,1,4-.82,3.87,3.87,0,0,1,2.51.74,8,8,0,0,1,3.26-.74c2.22,0,3.54.9,3.54,3.5v6H24.33Z" class="cls-1" transform="translate(-1.88 -10.28)"/><path d="M28.74,72.09a1.3,1.3,0,0,1,2.6,0,1.3,1.3,0,1,1-2.6,0ZM31.09,84.3H29V75h2.08Z" class="cls-1" transform="translate(-1.88 -10.28)"/><path d="M35.14,80.1v.05a2.85,2.85,0,0,0,3,2.57,5.25,5.25,0,0,0,3.12-.91v1.83a5.77,5.77,0,0,1-3.27.87,4.55,4.55,0,0,1-4.86-4.81c0-3,1.93-5,4.49-5s4,1.75,4,4.3v1Zm4.51-1.35c0-1.45-.75-2.25-2.1-2.25a2.44,2.44,0,0,0-2.35,2.25Z" class="cls-1" transform="translate(-1.88 -10.28)"/><path d="M43.7,75.55a12.36,12.36,0,0,1,4.26-.8c2.37,0,3.88.9,3.88,3.54v6H49.79V78.48c0-1.35-.84-1.84-2-1.84a7.12,7.12,0,0,0-2,.28V84.3H43.7Z" class="cls-1" transform="translate(-1.88 -10.28)"/><path d="M54.2,72.09a1.3,1.3,0,0,1,2.6,0,1.3,1.3,0,1,1-2.6,0ZM56.55,84.3H54.47V75h2.08Z" class="cls-1" transform="translate(-1.88 -10.28)"/><path d="M64,78c0-1-.75-1.48-1.78-1.48a5.21,5.21,0,0,0-2.68.76V75.51a6.06,6.06,0,0,1,3-.76c2,0,3.48.84,3.48,3.18v6.18a13.88,13.88,0,0,1-3.19.38c-2.41,0-4.17-.74-4.17-2.85,0-1.9,1.61-2.82,4.3-2.82h1Zm0,2.17h-.88c-1.44,0-2.39.42-2.39,1.37s.88,1.35,2.14,1.35A6.63,6.63,0,0,0,64,82.82Z" class="cls-1" transform="translate(-1.88 -10.28)"/><path d="M79.23,84.3H71.68V82.59l4.83-5.9H71.87V75H79v1.75l-4.89,5.86h5.14ZM74.3,72.09a1.31,1.31,0,0,1,2.61,0,1.31,1.31,0,1,1-2.61,0Z" class="cls-1" transform="translate(-1.88 -10.28)"/><path d="M84.69,82.31,87.29,75h2.14l-5,13.13h-2l1.3-3.37L79.82,75h2.23Z" class="cls-1" transform="translate(-1.88 -10.28)"/><path d="M97.58,77.47a3.88,3.88,0,0,0-2.46-.87,2.82,2.82,0,0,0-3,3,2.87,2.87,0,0,0,3.06,3,4.05,4.05,0,0,0,2.47-.84v2a5.39,5.39,0,0,1-2.75.7,4.62,4.62,0,0,1-4.88-4.87,4.68,4.68,0,0,1,4.88-4.89,5.11,5.11,0,0,1,2.65.69Z" class="cls-1" transform="translate(-1.88 -10.28)"/><path d="M99.49,72.09a1.3,1.3,0,0,1,2.6,0,1.3,1.3,0,1,1-2.6,0Zm2.35,12.21H99.76V75h2.08Z" class="cls-1" transform="translate(-1.88 -10.28)"/><path d="M105.89,80.1v.05a2.85,2.85,0,0,0,3,2.57,5.3,5.3,0,0,0,3.13-.91v1.83a5.83,5.83,0,0,1-3.28.87,4.55,4.55,0,0,1-4.86-4.81c0-3,1.93-5,4.49-5s4,1.75,4,4.3v1Zm4.51-1.35c0-1.45-.75-2.25-2.1-2.25A2.44,2.44,0,0,0,106,78.75Z" class="cls-1" transform="translate(-1.88 -10.28)"/><path d="M116.78,82.17a5.73,5.73,0,0,1-2.11,4.62h-1.54a7.28,7.28,0,0,0,1.47-4.62Z" class="cls-1" transform="translate(-1.88 -10.28)"/><path d="M127.57,74.75a4.88,4.88,0,1,1-4.78,4.89A4.64,4.64,0,0,1,127.57,74.75Zm0,1.79c-1.55,0-2.69,1.2-2.69,3.1s1.14,3.08,2.69,3.08,2.7-1.2,2.7-3.08S129.17,76.54,127.57,76.54Z" class="cls-1" transform="translate(-1.88 -10.28)"/><path d="M133.2,75h1.4V72.68h2.06V75h2.64v1.75h-2.64v4.45c0,1.11.48,1.49,1.28,1.49a3.28,3.28,0,0,0,1.7-.52V84a4.82,4.82,0,0,1-2.25.51,2.57,2.57,0,0,1-2.79-2.89V76.71h-1.4Z" class="cls-1" transform="translate(-1.88 -10.28)"/><path d="M150,82.13,152,75H154L151.3,84.3H149l-1.89-6.77L145.2,84.3h-2.31L140.17,75h2.14l1.93,7.17L146.19,75h1.86Z" class="cls-1" transform="translate(-1.88 -10.28)"/><path d="M155.17,72.09a1.31,1.31,0,0,1,2.61,0,1.31,1.31,0,1,1-2.61,0Zm2.35,12.21h-2.08V75h2.08Z" class="cls-1" transform="translate(-1.88 -10.28)"/><path d="M161.57,80.1v.05a2.86,2.86,0,0,0,3,2.57,5.3,5.3,0,0,0,3.13-.91v1.83a5.83,5.83,0,0,1-3.28.87,4.55,4.55,0,0,1-4.86-4.81c0-3,1.93-5,4.49-5s4,1.75,4,4.3v1Zm4.51-1.35c0-1.45-.75-2.25-2.1-2.25a2.44,2.44,0,0,0-2.35,2.25Z" class="cls-1" transform="translate(-1.88 -10.28)"/><path d="M172.22,84.3h-2.08V75.74a7.55,7.55,0,0,1,3.63-.93,6.69,6.69,0,0,1,1.78.23v2a5,5,0,0,0-1.78-.3,4,4,0,0,0-1.55.3Z" class="cls-1" transform="translate(-1.88 -10.28)"/><path d="M181.72,78c0-1-.75-1.48-1.78-1.48a5.27,5.27,0,0,0-2.69.76V75.51a6.11,6.11,0,0,1,3-.76c2,0,3.49.84,3.49,3.18v6.18a13.94,13.94,0,0,1-3.19.38c-2.41,0-4.18-.74-4.18-2.85,0-1.9,1.62-2.82,4.31-2.82h1Zm0,2.17h-.88c-1.45,0-2.39.42-2.39,1.37s.88,1.35,2.14,1.35a6.83,6.83,0,0,0,1.13-.11Z" class="cls-1" transform="translate(-1.88 -10.28)"/><path d="M197.92,84.09a16.47,16.47,0,0,1-3.61.42c-2.66,0-4.3-.87-4.3-3.48V75h2.06v5.92c0,1.39.84,1.9,2.2,1.9a10.1,10.1,0,0,0,1.59-.13V75h2.06Z" class="cls-1" transform="translate(-1.88 -10.28)"/><path d="M212,78.31a1.54,1.54,0,0,0-1.7-1.73,5.56,5.56,0,0,0-2.1.42,2.93,2.93,0,0,1,.21,1.18V84.3h-2.05v-6a1.53,1.53,0,0,0-1.7-1.73,5.82,5.82,0,0,0-1.87.32v7.4h-2.07V75.57a11.54,11.54,0,0,1,4-.82,3.92,3.92,0,0,1,2.52.74,7.94,7.94,0,0,1,3.25-.74c2.22,0,3.54.9,3.54,3.5v6h-2Z" class="cls-1" transform="translate(-1.88 -10.28)"/><path d="M220.09,82.31l2.6-7.35h2.14l-5,13.13h-2l1.3-3.37L215.22,75h2.23Z" class="cls-1" transform="translate(-1.88 -10.28)"/><path d="M225.74,81.77a4.85,4.85,0,0,0,2.83,1c.92,0,1.53-.31,1.53-1s-.54-1-1.74-1.35c-1.93-.44-2.75-1.22-2.75-2.85,0-1.9,1.43-2.82,3.31-2.82a4.86,4.86,0,0,1,2.67.71v1.92a4.31,4.31,0,0,0-2.6-.95c-.9,0-1.39.45-1.39,1.06s.4.93,1.47,1.22c2.12.47,3,1.27,3,3,0,2-1.49,2.85-3.5,2.85a5.45,5.45,0,0,1-2.87-.76Z" class="cls-1" transform="translate(-1.88 -10.28)"/><path d="M236.67,75.49l1.49-1V76.2l-1.49,1V84.3h-2.06v-6l-1.42,1V77.49l1.42-.95V70h2.06Z" class="cls-1" transform="translate(-1.88 -10.28)"/><path d="M243.39,82.31,246,75h2.14l-5,13.13h-2l1.3-3.37L238.52,75h2.22Z" class="cls-1" transform="translate(-1.88 -10.28)"/></g></svg>